<mxfile host="app.diagrams.net" modified="2023-08-14T20:13:09.660Z" agent="Mozilla/5.0 (Windows NT 10.0; Win64; x64) AppleWebKit/537.36 (KHTML, like Gecko) Chrome/115.0.0.0 Safari/537.36" etag="R9j2bh94rtTuqf0KW4l0" version="21.6.8" type="device">
  <diagram name="PÃ¡gina-1" id="tIoamFCh1rkgf__Bzmc7">
    <mxGraphModel dx="2062" dy="3026" grid="1" gridSize="10" guides="1" tooltips="1" connect="1" arrows="1" fold="1" page="1" pageScale="1" pageWidth="827" pageHeight="1169" math="0" shadow="0">
      <root>
        <mxCell id="0" />
        <mxCell id="1" parent="0" />
        <mxCell id="FSW0nJ0Hy-iuMrJ-29rv-21" style="edgeStyle=orthogonalEdgeStyle;rounded=0;orthogonalLoop=1;jettySize=auto;html=1;entryX=0.5;entryY=0;entryDx=0;entryDy=0;endArrow=none;endFill=0;" edge="1" parent="1" source="enmrjBKCqqdczSjh6zLh-5" target="FSW0nJ0Hy-iuMrJ-29rv-20">
          <mxGeometry relative="1" as="geometry" />
        </mxCell>
        <mxCell id="FSW0nJ0Hy-iuMrJ-29rv-30" style="edgeStyle=orthogonalEdgeStyle;rounded=0;orthogonalLoop=1;jettySize=auto;html=1;entryX=0.5;entryY=1;entryDx=0;entryDy=0;endArrow=none;endFill=0;" edge="1" parent="1" source="enmrjBKCqqdczSjh6zLh-5" target="FSW0nJ0Hy-iuMrJ-29rv-10">
          <mxGeometry relative="1" as="geometry" />
        </mxCell>
        <mxCell id="enmrjBKCqqdczSjh6zLh-5" value="Medico" style="rounded=0;whiteSpace=wrap;html=1;" parent="1" vertex="1">
          <mxGeometry x="90" y="-1270" width="120" height="60" as="geometry" />
        </mxCell>
        <mxCell id="enmrjBKCqqdczSjh6zLh-7" value="1" style="text;html=1;align=center;verticalAlign=middle;resizable=0;points=[];autosize=1;strokeColor=#82b366;fillColor=#d5e8d4;" parent="1" vertex="1">
          <mxGeometry x="-160" y="-1270" width="30" height="30" as="geometry" />
        </mxCell>
        <mxCell id="FSW0nJ0Hy-iuMrJ-29rv-22" style="edgeStyle=orthogonalEdgeStyle;rounded=0;orthogonalLoop=1;jettySize=auto;html=1;entryX=0.5;entryY=1;entryDx=0;entryDy=0;endArrow=none;endFill=0;" edge="1" parent="1" source="enmrjBKCqqdczSjh6zLh-19" target="FSW0nJ0Hy-iuMrJ-29rv-20">
          <mxGeometry relative="1" as="geometry" />
        </mxCell>
        <mxCell id="FSW0nJ0Hy-iuMrJ-29rv-24" style="edgeStyle=orthogonalEdgeStyle;rounded=0;orthogonalLoop=1;jettySize=auto;html=1;entryX=0.5;entryY=0;entryDx=0;entryDy=0;endArrow=none;endFill=0;" edge="1" parent="1" source="enmrjBKCqqdczSjh6zLh-19" target="FSW0nJ0Hy-iuMrJ-29rv-23">
          <mxGeometry relative="1" as="geometry" />
        </mxCell>
        <mxCell id="FSW0nJ0Hy-iuMrJ-29rv-152" style="edgeStyle=orthogonalEdgeStyle;rounded=0;orthogonalLoop=1;jettySize=auto;html=1;entryX=0;entryY=0.5;entryDx=0;entryDy=0;endArrow=none;endFill=0;" edge="1" parent="1" source="enmrjBKCqqdczSjh6zLh-19" target="FSW0nJ0Hy-iuMrJ-29rv-151">
          <mxGeometry relative="1" as="geometry" />
        </mxCell>
        <mxCell id="enmrjBKCqqdczSjh6zLh-19" value="Consulta" style="rounded=0;whiteSpace=wrap;html=1;" parent="1" vertex="1">
          <mxGeometry x="90" y="-1020" width="120" height="60" as="geometry" />
        </mxCell>
        <mxCell id="enmrjBKCqqdczSjh6zLh-21" value="Paciente" style="rounded=0;whiteSpace=wrap;html=1;" parent="1" vertex="1">
          <mxGeometry x="395" y="-880" width="120" height="60" as="geometry" />
        </mxCell>
        <mxCell id="FSW0nJ0Hy-iuMrJ-29rv-7" style="edgeStyle=orthogonalEdgeStyle;rounded=0;orthogonalLoop=1;jettySize=auto;html=1;entryX=0;entryY=0.5;entryDx=0;entryDy=0;endArrow=none;endFill=0;" edge="1" parent="1" source="FSW0nJ0Hy-iuMrJ-29rv-2" target="FSW0nJ0Hy-iuMrJ-29rv-6">
          <mxGeometry relative="1" as="geometry" />
        </mxCell>
        <mxCell id="FSW0nJ0Hy-iuMrJ-29rv-2" value="Clinica" style="rounded=0;whiteSpace=wrap;html=1;" vertex="1" parent="1">
          <mxGeometry x="-280" y="-1270" width="120" height="60" as="geometry" />
        </mxCell>
        <mxCell id="FSW0nJ0Hy-iuMrJ-29rv-150" style="edgeStyle=orthogonalEdgeStyle;rounded=0;orthogonalLoop=1;jettySize=auto;html=1;entryX=0.5;entryY=0;entryDx=0;entryDy=0;endArrow=none;endFill=0;" edge="1" parent="1" source="FSW0nJ0Hy-iuMrJ-29rv-3" target="FSW0nJ0Hy-iuMrJ-29rv-37">
          <mxGeometry relative="1" as="geometry" />
        </mxCell>
        <mxCell id="FSW0nJ0Hy-iuMrJ-29rv-3" value="Comentario" style="rounded=0;whiteSpace=wrap;html=1;" vertex="1" parent="1">
          <mxGeometry x="395" y="-1080" width="120" height="60" as="geometry" />
        </mxCell>
        <mxCell id="FSW0nJ0Hy-iuMrJ-29rv-4" value="MedicoEspecialidade" style="rounded=0;whiteSpace=wrap;html=1;" vertex="1" parent="1">
          <mxGeometry x="90" y="-1530" width="120" height="60" as="geometry" />
        </mxCell>
        <mxCell id="FSW0nJ0Hy-iuMrJ-29rv-8" style="edgeStyle=orthogonalEdgeStyle;rounded=0;orthogonalLoop=1;jettySize=auto;html=1;entryX=0;entryY=0.5;entryDx=0;entryDy=0;endArrow=none;endFill=0;" edge="1" parent="1" source="FSW0nJ0Hy-iuMrJ-29rv-6" target="enmrjBKCqqdczSjh6zLh-5">
          <mxGeometry relative="1" as="geometry" />
        </mxCell>
        <mxCell id="FSW0nJ0Hy-iuMrJ-29rv-6" value="Possui" style="rhombus;whiteSpace=wrap;html=1;" vertex="1" parent="1">
          <mxGeometry x="-60" y="-1275" width="70" height="70" as="geometry" />
        </mxCell>
        <mxCell id="FSW0nJ0Hy-iuMrJ-29rv-9" value="N" style="text;html=1;align=center;verticalAlign=middle;resizable=0;points=[];autosize=1;strokeColor=#9673a6;fillColor=#e1d5e7;" vertex="1" parent="1">
          <mxGeometry x="60" y="-1270" width="30" height="30" as="geometry" />
        </mxCell>
        <mxCell id="FSW0nJ0Hy-iuMrJ-29rv-31" style="edgeStyle=orthogonalEdgeStyle;rounded=0;orthogonalLoop=1;jettySize=auto;html=1;entryX=0.5;entryY=1;entryDx=0;entryDy=0;endArrow=none;endFill=0;" edge="1" parent="1" source="FSW0nJ0Hy-iuMrJ-29rv-10" target="FSW0nJ0Hy-iuMrJ-29rv-4">
          <mxGeometry relative="1" as="geometry" />
        </mxCell>
        <mxCell id="FSW0nJ0Hy-iuMrJ-29rv-10" value="Possui" style="rhombus;whiteSpace=wrap;html=1;" vertex="1" parent="1">
          <mxGeometry x="115" y="-1390" width="70" height="70" as="geometry" />
        </mxCell>
        <mxCell id="FSW0nJ0Hy-iuMrJ-29rv-13" value="N" style="text;html=1;align=center;verticalAlign=middle;resizable=0;points=[];autosize=1;strokeColor=#9673a6;fillColor=#e1d5e7;" vertex="1" parent="1">
          <mxGeometry x="150" y="-1300" width="30" height="30" as="geometry" />
        </mxCell>
        <mxCell id="FSW0nJ0Hy-iuMrJ-29rv-14" value="1" style="text;html=1;align=center;verticalAlign=middle;resizable=0;points=[];autosize=1;strokeColor=#82b366;fillColor=#d5e8d4;" vertex="1" parent="1">
          <mxGeometry x="150" y="-1470" width="30" height="30" as="geometry" />
        </mxCell>
        <mxCell id="FSW0nJ0Hy-iuMrJ-29rv-18" value="1" style="text;html=1;align=center;verticalAlign=middle;resizable=0;points=[];autosize=1;strokeColor=#82b366;fillColor=#d5e8d4;" vertex="1" parent="1">
          <mxGeometry x="-220" y="-1210" width="30" height="30" as="geometry" />
        </mxCell>
        <mxCell id="FSW0nJ0Hy-iuMrJ-29rv-20" value="Possui" style="rhombus;whiteSpace=wrap;html=1;" vertex="1" parent="1">
          <mxGeometry x="115" y="-1160" width="70" height="70" as="geometry" />
        </mxCell>
        <mxCell id="FSW0nJ0Hy-iuMrJ-29rv-148" style="edgeStyle=orthogonalEdgeStyle;rounded=0;orthogonalLoop=1;jettySize=auto;html=1;entryX=0;entryY=0.5;entryDx=0;entryDy=0;endArrow=none;endFill=0;" edge="1" parent="1" source="FSW0nJ0Hy-iuMrJ-29rv-23" target="enmrjBKCqqdczSjh6zLh-21">
          <mxGeometry relative="1" as="geometry" />
        </mxCell>
        <mxCell id="FSW0nJ0Hy-iuMrJ-29rv-23" value="Possui" style="rhombus;whiteSpace=wrap;html=1;" vertex="1" parent="1">
          <mxGeometry x="115" y="-885" width="70" height="70" as="geometry" />
        </mxCell>
        <mxCell id="FSW0nJ0Hy-iuMrJ-29rv-26" value="1" style="text;html=1;align=center;verticalAlign=middle;resizable=0;points=[];autosize=1;strokeColor=#82b366;fillColor=#d5e8d4;" vertex="1" parent="1">
          <mxGeometry x="365" y="-880" width="30" height="30" as="geometry" />
        </mxCell>
        <mxCell id="FSW0nJ0Hy-iuMrJ-29rv-27" value="N" style="text;html=1;align=center;verticalAlign=middle;resizable=0;points=[];autosize=1;strokeColor=#9673a6;fillColor=#e1d5e7;" vertex="1" parent="1">
          <mxGeometry x="120" y="-960" width="30" height="30" as="geometry" />
        </mxCell>
        <mxCell id="FSW0nJ0Hy-iuMrJ-29rv-28" value="1" style="text;html=1;align=center;verticalAlign=middle;resizable=0;points=[];autosize=1;strokeColor=#82b366;fillColor=#d5e8d4;" vertex="1" parent="1">
          <mxGeometry x="150" y="-1210" width="30" height="30" as="geometry" />
        </mxCell>
        <mxCell id="FSW0nJ0Hy-iuMrJ-29rv-29" value="N" style="text;html=1;align=center;verticalAlign=middle;resizable=0;points=[];autosize=1;strokeColor=#9673a6;fillColor=#e1d5e7;" vertex="1" parent="1">
          <mxGeometry x="150" y="-1050" width="30" height="30" as="geometry" />
        </mxCell>
        <mxCell id="FSW0nJ0Hy-iuMrJ-29rv-32" value="Possui" style="rhombus;whiteSpace=wrap;html=1;" vertex="1" parent="1">
          <mxGeometry x="-10" y="-1067.5" width="60" height="55" as="geometry" />
        </mxCell>
        <mxCell id="FSW0nJ0Hy-iuMrJ-29rv-33" value="1" style="text;html=1;align=center;verticalAlign=middle;resizable=0;points=[];autosize=1;strokeColor=#82b366;fillColor=#d5e8d4;" vertex="1" parent="1">
          <mxGeometry x="460" y="-910" width="30" height="30" as="geometry" />
        </mxCell>
        <mxCell id="FSW0nJ0Hy-iuMrJ-29rv-34" value="N" style="text;html=1;align=center;verticalAlign=middle;resizable=0;points=[];autosize=1;strokeColor=#9673a6;fillColor=#e1d5e7;" vertex="1" parent="1">
          <mxGeometry x="450" y="-1020" width="30" height="30" as="geometry" />
        </mxCell>
        <mxCell id="FSW0nJ0Hy-iuMrJ-29rv-149" style="edgeStyle=orthogonalEdgeStyle;rounded=0;orthogonalLoop=1;jettySize=auto;html=1;entryX=0.5;entryY=0;entryDx=0;entryDy=0;endArrow=none;endFill=0;" edge="1" parent="1" source="FSW0nJ0Hy-iuMrJ-29rv-37" target="enmrjBKCqqdczSjh6zLh-21">
          <mxGeometry relative="1" as="geometry" />
        </mxCell>
        <mxCell id="FSW0nJ0Hy-iuMrJ-29rv-37" value="Possui" style="rhombus;whiteSpace=wrap;html=1;" vertex="1" parent="1">
          <mxGeometry x="430" y="-965" width="50" height="55" as="geometry" />
        </mxCell>
        <mxCell id="FSW0nJ0Hy-iuMrJ-29rv-44" value="1" style="text;html=1;align=center;verticalAlign=middle;resizable=0;points=[];autosize=1;strokeColor=#82b366;fillColor=#d5e8d4;" vertex="1" parent="1">
          <mxGeometry x="210" y="-1020" width="30" height="30" as="geometry" />
        </mxCell>
        <mxCell id="FSW0nJ0Hy-iuMrJ-29rv-45" value="N" style="text;html=1;align=center;verticalAlign=middle;resizable=0;points=[];autosize=1;strokeColor=#9673a6;fillColor=#e1d5e7;" vertex="1" parent="1">
          <mxGeometry x="365" y="-1080" width="30" height="30" as="geometry" />
        </mxCell>
        <mxCell id="FSW0nJ0Hy-iuMrJ-29rv-46" value="MedicoEspecialidade" style="shape=table;startSize=30;container=1;collapsible=1;childLayout=tableLayout;fixedRows=1;rowLines=0;fontStyle=1;align=center;resizeLast=1;html=1;" vertex="1" parent="1">
          <mxGeometry x="980" y="-975" width="180" height="90" as="geometry" />
        </mxCell>
        <mxCell id="FSW0nJ0Hy-iuMrJ-29rv-47" value="" style="shape=tableRow;horizontal=0;startSize=0;swimlaneHead=0;swimlaneBody=0;fillColor=none;collapsible=0;dropTarget=0;points=[[0,0.5],[1,0.5]];portConstraint=eastwest;top=0;left=0;right=0;bottom=1;" vertex="1" parent="FSW0nJ0Hy-iuMrJ-29rv-46">
          <mxGeometry y="30" width="180" height="30" as="geometry" />
        </mxCell>
        <mxCell id="FSW0nJ0Hy-iuMrJ-29rv-48" value="PK" style="shape=partialRectangle;connectable=0;fillColor=none;top=0;left=0;bottom=0;right=0;fontStyle=1;overflow=hidden;whiteSpace=wrap;html=1;" vertex="1" parent="FSW0nJ0Hy-iuMrJ-29rv-47">
          <mxGeometry width="30" height="30" as="geometry">
            <mxRectangle width="30" height="30" as="alternateBounds" />
          </mxGeometry>
        </mxCell>
        <mxCell id="FSW0nJ0Hy-iuMrJ-29rv-49" value="IdMedicoEspecialidade" style="shape=partialRectangle;connectable=0;fillColor=none;top=0;left=0;bottom=0;right=0;align=left;spacingLeft=6;fontStyle=5;overflow=hidden;whiteSpace=wrap;html=1;" vertex="1" parent="FSW0nJ0Hy-iuMrJ-29rv-47">
          <mxGeometry x="30" width="150" height="30" as="geometry">
            <mxRectangle width="150" height="30" as="alternateBounds" />
          </mxGeometry>
        </mxCell>
        <mxCell id="FSW0nJ0Hy-iuMrJ-29rv-50" value="" style="shape=tableRow;horizontal=0;startSize=0;swimlaneHead=0;swimlaneBody=0;fillColor=none;collapsible=0;dropTarget=0;points=[[0,0.5],[1,0.5]];portConstraint=eastwest;top=0;left=0;right=0;bottom=0;" vertex="1" parent="FSW0nJ0Hy-iuMrJ-29rv-46">
          <mxGeometry y="60" width="180" height="30" as="geometry" />
        </mxCell>
        <mxCell id="FSW0nJ0Hy-iuMrJ-29rv-51" value="" style="shape=partialRectangle;connectable=0;fillColor=none;top=0;left=0;bottom=0;right=0;editable=1;overflow=hidden;whiteSpace=wrap;html=1;" vertex="1" parent="FSW0nJ0Hy-iuMrJ-29rv-50">
          <mxGeometry width="30" height="30" as="geometry">
            <mxRectangle width="30" height="30" as="alternateBounds" />
          </mxGeometry>
        </mxCell>
        <mxCell id="FSW0nJ0Hy-iuMrJ-29rv-52" value="Titulo" style="shape=partialRectangle;connectable=0;fillColor=none;top=0;left=0;bottom=0;right=0;align=left;spacingLeft=6;overflow=hidden;whiteSpace=wrap;html=1;" vertex="1" parent="FSW0nJ0Hy-iuMrJ-29rv-50">
          <mxGeometry x="30" width="150" height="30" as="geometry">
            <mxRectangle width="150" height="30" as="alternateBounds" />
          </mxGeometry>
        </mxCell>
        <mxCell id="FSW0nJ0Hy-iuMrJ-29rv-59" value="Clinica" style="shape=table;startSize=30;container=1;collapsible=1;childLayout=tableLayout;fixedRows=1;rowLines=0;fontStyle=1;align=center;resizeLast=1;html=1;" vertex="1" parent="1">
          <mxGeometry x="980" y="-830" width="180" height="240" as="geometry" />
        </mxCell>
        <mxCell id="FSW0nJ0Hy-iuMrJ-29rv-60" value="" style="shape=tableRow;horizontal=0;startSize=0;swimlaneHead=0;swimlaneBody=0;fillColor=none;collapsible=0;dropTarget=0;points=[[0,0.5],[1,0.5]];portConstraint=eastwest;top=0;left=0;right=0;bottom=1;" vertex="1" parent="FSW0nJ0Hy-iuMrJ-29rv-59">
          <mxGeometry y="30" width="180" height="30" as="geometry" />
        </mxCell>
        <mxCell id="FSW0nJ0Hy-iuMrJ-29rv-61" value="PK" style="shape=partialRectangle;connectable=0;fillColor=none;top=0;left=0;bottom=0;right=0;fontStyle=1;overflow=hidden;whiteSpace=wrap;html=1;" vertex="1" parent="FSW0nJ0Hy-iuMrJ-29rv-60">
          <mxGeometry width="30" height="30" as="geometry">
            <mxRectangle width="30" height="30" as="alternateBounds" />
          </mxGeometry>
        </mxCell>
        <mxCell id="FSW0nJ0Hy-iuMrJ-29rv-62" value="IdClinica" style="shape=partialRectangle;connectable=0;fillColor=none;top=0;left=0;bottom=0;right=0;align=left;spacingLeft=6;fontStyle=5;overflow=hidden;whiteSpace=wrap;html=1;" vertex="1" parent="FSW0nJ0Hy-iuMrJ-29rv-60">
          <mxGeometry x="30" width="150" height="30" as="geometry">
            <mxRectangle width="150" height="30" as="alternateBounds" />
          </mxGeometry>
        </mxCell>
        <mxCell id="FSW0nJ0Hy-iuMrJ-29rv-63" value="" style="shape=tableRow;horizontal=0;startSize=0;swimlaneHead=0;swimlaneBody=0;fillColor=none;collapsible=0;dropTarget=0;points=[[0,0.5],[1,0.5]];portConstraint=eastwest;top=0;left=0;right=0;bottom=0;" vertex="1" parent="FSW0nJ0Hy-iuMrJ-29rv-59">
          <mxGeometry y="60" width="180" height="30" as="geometry" />
        </mxCell>
        <mxCell id="FSW0nJ0Hy-iuMrJ-29rv-64" value="" style="shape=partialRectangle;connectable=0;fillColor=none;top=0;left=0;bottom=0;right=0;editable=1;overflow=hidden;whiteSpace=wrap;html=1;" vertex="1" parent="FSW0nJ0Hy-iuMrJ-29rv-63">
          <mxGeometry width="30" height="30" as="geometry">
            <mxRectangle width="30" height="30" as="alternateBounds" />
          </mxGeometry>
        </mxCell>
        <mxCell id="FSW0nJ0Hy-iuMrJ-29rv-65" value="Endereco" style="shape=partialRectangle;connectable=0;fillColor=none;top=0;left=0;bottom=0;right=0;align=left;spacingLeft=6;overflow=hidden;whiteSpace=wrap;html=1;" vertex="1" parent="FSW0nJ0Hy-iuMrJ-29rv-63">
          <mxGeometry x="30" width="150" height="30" as="geometry">
            <mxRectangle width="150" height="30" as="alternateBounds" />
          </mxGeometry>
        </mxCell>
        <mxCell id="FSW0nJ0Hy-iuMrJ-29rv-66" value="" style="shape=tableRow;horizontal=0;startSize=0;swimlaneHead=0;swimlaneBody=0;fillColor=none;collapsible=0;dropTarget=0;points=[[0,0.5],[1,0.5]];portConstraint=eastwest;top=0;left=0;right=0;bottom=0;" vertex="1" parent="FSW0nJ0Hy-iuMrJ-29rv-59">
          <mxGeometry y="90" width="180" height="30" as="geometry" />
        </mxCell>
        <mxCell id="FSW0nJ0Hy-iuMrJ-29rv-67" value="" style="shape=partialRectangle;connectable=0;fillColor=none;top=0;left=0;bottom=0;right=0;editable=1;overflow=hidden;whiteSpace=wrap;html=1;" vertex="1" parent="FSW0nJ0Hy-iuMrJ-29rv-66">
          <mxGeometry width="30" height="30" as="geometry">
            <mxRectangle width="30" height="30" as="alternateBounds" />
          </mxGeometry>
        </mxCell>
        <mxCell id="FSW0nJ0Hy-iuMrJ-29rv-68" value="Horario de inicio do expediente" style="shape=partialRectangle;connectable=0;fillColor=none;top=0;left=0;bottom=0;right=0;align=left;spacingLeft=6;overflow=hidden;whiteSpace=wrap;html=1;" vertex="1" parent="FSW0nJ0Hy-iuMrJ-29rv-66">
          <mxGeometry x="30" width="150" height="30" as="geometry">
            <mxRectangle width="150" height="30" as="alternateBounds" />
          </mxGeometry>
        </mxCell>
        <mxCell id="FSW0nJ0Hy-iuMrJ-29rv-69" value="" style="shape=tableRow;horizontal=0;startSize=0;swimlaneHead=0;swimlaneBody=0;fillColor=none;collapsible=0;dropTarget=0;points=[[0,0.5],[1,0.5]];portConstraint=eastwest;top=0;left=0;right=0;bottom=0;" vertex="1" parent="FSW0nJ0Hy-iuMrJ-29rv-59">
          <mxGeometry y="120" width="180" height="30" as="geometry" />
        </mxCell>
        <mxCell id="FSW0nJ0Hy-iuMrJ-29rv-70" value="" style="shape=partialRectangle;connectable=0;fillColor=none;top=0;left=0;bottom=0;right=0;editable=1;overflow=hidden;whiteSpace=wrap;html=1;" vertex="1" parent="FSW0nJ0Hy-iuMrJ-29rv-69">
          <mxGeometry width="30" height="30" as="geometry">
            <mxRectangle width="30" height="30" as="alternateBounds" />
          </mxGeometry>
        </mxCell>
        <mxCell id="FSW0nJ0Hy-iuMrJ-29rv-71" value="Horario do fim do expediente" style="shape=partialRectangle;connectable=0;fillColor=none;top=0;left=0;bottom=0;right=0;align=left;spacingLeft=6;overflow=hidden;whiteSpace=wrap;html=1;" vertex="1" parent="FSW0nJ0Hy-iuMrJ-29rv-69">
          <mxGeometry x="30" width="150" height="30" as="geometry">
            <mxRectangle width="150" height="30" as="alternateBounds" />
          </mxGeometry>
        </mxCell>
        <mxCell id="FSW0nJ0Hy-iuMrJ-29rv-193" style="shape=tableRow;horizontal=0;startSize=0;swimlaneHead=0;swimlaneBody=0;fillColor=none;collapsible=0;dropTarget=0;points=[[0,0.5],[1,0.5]];portConstraint=eastwest;top=0;left=0;right=0;bottom=0;" vertex="1" parent="FSW0nJ0Hy-iuMrJ-29rv-59">
          <mxGeometry y="150" width="180" height="30" as="geometry" />
        </mxCell>
        <mxCell id="FSW0nJ0Hy-iuMrJ-29rv-194" style="shape=partialRectangle;connectable=0;fillColor=none;top=0;left=0;bottom=0;right=0;editable=1;overflow=hidden;whiteSpace=wrap;html=1;" vertex="1" parent="FSW0nJ0Hy-iuMrJ-29rv-193">
          <mxGeometry width="30" height="30" as="geometry">
            <mxRectangle width="30" height="30" as="alternateBounds" />
          </mxGeometry>
        </mxCell>
        <mxCell id="FSW0nJ0Hy-iuMrJ-29rv-195" value="Nome fantasia" style="shape=partialRectangle;connectable=0;fillColor=none;top=0;left=0;bottom=0;right=0;align=left;spacingLeft=6;overflow=hidden;whiteSpace=wrap;html=1;" vertex="1" parent="FSW0nJ0Hy-iuMrJ-29rv-193">
          <mxGeometry x="30" width="150" height="30" as="geometry">
            <mxRectangle width="150" height="30" as="alternateBounds" />
          </mxGeometry>
        </mxCell>
        <mxCell id="FSW0nJ0Hy-iuMrJ-29rv-190" style="shape=tableRow;horizontal=0;startSize=0;swimlaneHead=0;swimlaneBody=0;fillColor=none;collapsible=0;dropTarget=0;points=[[0,0.5],[1,0.5]];portConstraint=eastwest;top=0;left=0;right=0;bottom=0;" vertex="1" parent="FSW0nJ0Hy-iuMrJ-29rv-59">
          <mxGeometry y="180" width="180" height="30" as="geometry" />
        </mxCell>
        <mxCell id="FSW0nJ0Hy-iuMrJ-29rv-191" style="shape=partialRectangle;connectable=0;fillColor=none;top=0;left=0;bottom=0;right=0;editable=1;overflow=hidden;whiteSpace=wrap;html=1;" vertex="1" parent="FSW0nJ0Hy-iuMrJ-29rv-190">
          <mxGeometry width="30" height="30" as="geometry">
            <mxRectangle width="30" height="30" as="alternateBounds" />
          </mxGeometry>
        </mxCell>
        <mxCell id="FSW0nJ0Hy-iuMrJ-29rv-192" value="Razao social" style="shape=partialRectangle;connectable=0;fillColor=none;top=0;left=0;bottom=0;right=0;align=left;spacingLeft=6;overflow=hidden;whiteSpace=wrap;html=1;" vertex="1" parent="FSW0nJ0Hy-iuMrJ-29rv-190">
          <mxGeometry x="30" width="150" height="30" as="geometry">
            <mxRectangle width="150" height="30" as="alternateBounds" />
          </mxGeometry>
        </mxCell>
        <mxCell id="FSW0nJ0Hy-iuMrJ-29rv-224" style="shape=tableRow;horizontal=0;startSize=0;swimlaneHead=0;swimlaneBody=0;fillColor=none;collapsible=0;dropTarget=0;points=[[0,0.5],[1,0.5]];portConstraint=eastwest;top=0;left=0;right=0;bottom=0;" vertex="1" parent="FSW0nJ0Hy-iuMrJ-29rv-59">
          <mxGeometry y="210" width="180" height="30" as="geometry" />
        </mxCell>
        <mxCell id="FSW0nJ0Hy-iuMrJ-29rv-225" style="shape=partialRectangle;connectable=0;fillColor=none;top=0;left=0;bottom=0;right=0;editable=1;overflow=hidden;whiteSpace=wrap;html=1;" vertex="1" parent="FSW0nJ0Hy-iuMrJ-29rv-224">
          <mxGeometry width="30" height="30" as="geometry">
            <mxRectangle width="30" height="30" as="alternateBounds" />
          </mxGeometry>
        </mxCell>
        <mxCell id="FSW0nJ0Hy-iuMrJ-29rv-226" value="CNPJ" style="shape=partialRectangle;connectable=0;fillColor=none;top=0;left=0;bottom=0;right=0;align=left;spacingLeft=6;overflow=hidden;whiteSpace=wrap;html=1;" vertex="1" parent="FSW0nJ0Hy-iuMrJ-29rv-224">
          <mxGeometry x="30" width="150" height="30" as="geometry">
            <mxRectangle width="150" height="30" as="alternateBounds" />
          </mxGeometry>
        </mxCell>
        <mxCell id="FSW0nJ0Hy-iuMrJ-29rv-72" value="Medico" style="shape=table;startSize=30;container=1;collapsible=1;childLayout=tableLayout;fixedRows=1;rowLines=0;fontStyle=1;align=center;resizeLast=1;html=1;whiteSpace=wrap;" vertex="1" parent="1">
          <mxGeometry x="1220" y="-860" width="230" height="210" as="geometry" />
        </mxCell>
        <mxCell id="FSW0nJ0Hy-iuMrJ-29rv-73" value="" style="shape=tableRow;horizontal=0;startSize=0;swimlaneHead=0;swimlaneBody=0;fillColor=none;collapsible=0;dropTarget=0;points=[[0,0.5],[1,0.5]];portConstraint=eastwest;top=0;left=0;right=0;bottom=0;html=1;" vertex="1" parent="FSW0nJ0Hy-iuMrJ-29rv-72">
          <mxGeometry y="30" width="230" height="30" as="geometry" />
        </mxCell>
        <mxCell id="FSW0nJ0Hy-iuMrJ-29rv-74" value="PK" style="shape=partialRectangle;connectable=0;fillColor=none;top=0;left=0;bottom=0;right=0;fontStyle=1;overflow=hidden;html=1;whiteSpace=wrap;" vertex="1" parent="FSW0nJ0Hy-iuMrJ-29rv-73">
          <mxGeometry width="60" height="30" as="geometry">
            <mxRectangle width="60" height="30" as="alternateBounds" />
          </mxGeometry>
        </mxCell>
        <mxCell id="FSW0nJ0Hy-iuMrJ-29rv-75" value="IdMedico" style="shape=partialRectangle;connectable=0;fillColor=none;top=0;left=0;bottom=0;right=0;align=left;spacingLeft=6;fontStyle=5;overflow=hidden;html=1;whiteSpace=wrap;" vertex="1" parent="FSW0nJ0Hy-iuMrJ-29rv-73">
          <mxGeometry x="60" width="170" height="30" as="geometry">
            <mxRectangle width="170" height="30" as="alternateBounds" />
          </mxGeometry>
        </mxCell>
        <mxCell id="FSW0nJ0Hy-iuMrJ-29rv-76" value="" style="shape=tableRow;horizontal=0;startSize=0;swimlaneHead=0;swimlaneBody=0;fillColor=none;collapsible=0;dropTarget=0;points=[[0,0.5],[1,0.5]];portConstraint=eastwest;top=0;left=0;right=0;bottom=1;html=1;" vertex="1" parent="FSW0nJ0Hy-iuMrJ-29rv-72">
          <mxGeometry y="60" width="230" height="30" as="geometry" />
        </mxCell>
        <mxCell id="FSW0nJ0Hy-iuMrJ-29rv-77" value="FK" style="shape=partialRectangle;connectable=0;fillColor=none;top=0;left=0;bottom=0;right=0;fontStyle=1;overflow=hidden;html=1;whiteSpace=wrap;" vertex="1" parent="FSW0nJ0Hy-iuMrJ-29rv-76">
          <mxGeometry width="60" height="30" as="geometry">
            <mxRectangle width="60" height="30" as="alternateBounds" />
          </mxGeometry>
        </mxCell>
        <mxCell id="FSW0nJ0Hy-iuMrJ-29rv-78" value="IdClinica" style="shape=partialRectangle;connectable=0;fillColor=none;top=0;left=0;bottom=0;right=0;align=left;spacingLeft=6;fontStyle=5;overflow=hidden;html=1;whiteSpace=wrap;" vertex="1" parent="FSW0nJ0Hy-iuMrJ-29rv-76">
          <mxGeometry x="60" width="170" height="30" as="geometry">
            <mxRectangle width="170" height="30" as="alternateBounds" />
          </mxGeometry>
        </mxCell>
        <mxCell id="FSW0nJ0Hy-iuMrJ-29rv-196" style="shape=tableRow;horizontal=0;startSize=0;swimlaneHead=0;swimlaneBody=0;fillColor=none;collapsible=0;dropTarget=0;points=[[0,0.5],[1,0.5]];portConstraint=eastwest;top=0;left=0;right=0;bottom=1;html=1;" vertex="1" parent="FSW0nJ0Hy-iuMrJ-29rv-72">
          <mxGeometry y="90" width="230" height="30" as="geometry" />
        </mxCell>
        <mxCell id="FSW0nJ0Hy-iuMrJ-29rv-197" value="FK" style="shape=partialRectangle;connectable=0;fillColor=none;top=0;left=0;bottom=0;right=0;fontStyle=1;overflow=hidden;html=1;whiteSpace=wrap;" vertex="1" parent="FSW0nJ0Hy-iuMrJ-29rv-196">
          <mxGeometry width="60" height="30" as="geometry">
            <mxRectangle width="60" height="30" as="alternateBounds" />
          </mxGeometry>
        </mxCell>
        <mxCell id="FSW0nJ0Hy-iuMrJ-29rv-198" value="IdMedicoEspecialidade" style="shape=partialRectangle;connectable=0;fillColor=none;top=0;left=0;bottom=0;right=0;align=left;spacingLeft=6;fontStyle=5;overflow=hidden;html=1;whiteSpace=wrap;" vertex="1" parent="FSW0nJ0Hy-iuMrJ-29rv-196">
          <mxGeometry x="60" width="170" height="30" as="geometry">
            <mxRectangle width="170" height="30" as="alternateBounds" />
          </mxGeometry>
        </mxCell>
        <mxCell id="FSW0nJ0Hy-iuMrJ-29rv-199" style="shape=tableRow;horizontal=0;startSize=0;swimlaneHead=0;swimlaneBody=0;fillColor=none;collapsible=0;dropTarget=0;points=[[0,0.5],[1,0.5]];portConstraint=eastwest;top=0;left=0;right=0;bottom=1;html=1;" vertex="1" parent="FSW0nJ0Hy-iuMrJ-29rv-72">
          <mxGeometry y="120" width="230" height="30" as="geometry" />
        </mxCell>
        <mxCell id="FSW0nJ0Hy-iuMrJ-29rv-200" value="FK" style="shape=partialRectangle;connectable=0;fillColor=none;top=0;left=0;bottom=0;right=0;fontStyle=1;overflow=hidden;html=1;whiteSpace=wrap;" vertex="1" parent="FSW0nJ0Hy-iuMrJ-29rv-199">
          <mxGeometry width="60" height="30" as="geometry">
            <mxRectangle width="60" height="30" as="alternateBounds" />
          </mxGeometry>
        </mxCell>
        <mxCell id="FSW0nJ0Hy-iuMrJ-29rv-201" value="IdUsuario" style="shape=partialRectangle;connectable=0;fillColor=none;top=0;left=0;bottom=0;right=0;align=left;spacingLeft=6;fontStyle=5;overflow=hidden;html=1;whiteSpace=wrap;" vertex="1" parent="FSW0nJ0Hy-iuMrJ-29rv-199">
          <mxGeometry x="60" width="170" height="30" as="geometry">
            <mxRectangle width="170" height="30" as="alternateBounds" />
          </mxGeometry>
        </mxCell>
        <mxCell id="FSW0nJ0Hy-iuMrJ-29rv-79" value="" style="shape=tableRow;horizontal=0;startSize=0;swimlaneHead=0;swimlaneBody=0;fillColor=none;collapsible=0;dropTarget=0;points=[[0,0.5],[1,0.5]];portConstraint=eastwest;top=0;left=0;right=0;bottom=0;html=1;" vertex="1" parent="FSW0nJ0Hy-iuMrJ-29rv-72">
          <mxGeometry y="150" width="230" height="30" as="geometry" />
        </mxCell>
        <mxCell id="FSW0nJ0Hy-iuMrJ-29rv-80" value="" style="shape=partialRectangle;connectable=0;fillColor=none;top=0;left=0;bottom=0;right=0;editable=1;overflow=hidden;html=1;whiteSpace=wrap;" vertex="1" parent="FSW0nJ0Hy-iuMrJ-29rv-79">
          <mxGeometry width="60" height="30" as="geometry">
            <mxRectangle width="60" height="30" as="alternateBounds" />
          </mxGeometry>
        </mxCell>
        <mxCell id="FSW0nJ0Hy-iuMrJ-29rv-81" value="Nome" style="shape=partialRectangle;connectable=0;fillColor=none;top=0;left=0;bottom=0;right=0;align=left;spacingLeft=6;overflow=hidden;html=1;whiteSpace=wrap;" vertex="1" parent="FSW0nJ0Hy-iuMrJ-29rv-79">
          <mxGeometry x="60" width="170" height="30" as="geometry">
            <mxRectangle width="170" height="30" as="alternateBounds" />
          </mxGeometry>
        </mxCell>
        <mxCell id="FSW0nJ0Hy-iuMrJ-29rv-82" value="" style="shape=tableRow;horizontal=0;startSize=0;swimlaneHead=0;swimlaneBody=0;fillColor=none;collapsible=0;dropTarget=0;points=[[0,0.5],[1,0.5]];portConstraint=eastwest;top=0;left=0;right=0;bottom=0;html=1;" vertex="1" parent="FSW0nJ0Hy-iuMrJ-29rv-72">
          <mxGeometry y="180" width="230" height="30" as="geometry" />
        </mxCell>
        <mxCell id="FSW0nJ0Hy-iuMrJ-29rv-83" value="" style="shape=partialRectangle;connectable=0;fillColor=none;top=0;left=0;bottom=0;right=0;editable=1;overflow=hidden;html=1;whiteSpace=wrap;" vertex="1" parent="FSW0nJ0Hy-iuMrJ-29rv-82">
          <mxGeometry width="60" height="30" as="geometry">
            <mxRectangle width="60" height="30" as="alternateBounds" />
          </mxGeometry>
        </mxCell>
        <mxCell id="FSW0nJ0Hy-iuMrJ-29rv-84" value="Row 4" style="shape=partialRectangle;connectable=0;fillColor=none;top=0;left=0;bottom=0;right=0;align=left;spacingLeft=6;overflow=hidden;html=1;whiteSpace=wrap;" vertex="1" parent="FSW0nJ0Hy-iuMrJ-29rv-82">
          <mxGeometry x="60" width="170" height="30" as="geometry">
            <mxRectangle width="170" height="30" as="alternateBounds" />
          </mxGeometry>
        </mxCell>
        <mxCell id="FSW0nJ0Hy-iuMrJ-29rv-85" value="Consulta" style="shape=table;startSize=30;container=1;collapsible=1;childLayout=tableLayout;fixedRows=1;rowLines=0;fontStyle=1;align=center;resizeLast=1;html=1;whiteSpace=wrap;" vertex="1" parent="1">
          <mxGeometry x="1510" y="-580" width="180" height="180" as="geometry" />
        </mxCell>
        <mxCell id="FSW0nJ0Hy-iuMrJ-29rv-86" value="" style="shape=tableRow;horizontal=0;startSize=0;swimlaneHead=0;swimlaneBody=0;fillColor=none;collapsible=0;dropTarget=0;points=[[0,0.5],[1,0.5]];portConstraint=eastwest;top=0;left=0;right=0;bottom=0;html=1;" vertex="1" parent="FSW0nJ0Hy-iuMrJ-29rv-85">
          <mxGeometry y="30" width="180" height="30" as="geometry" />
        </mxCell>
        <mxCell id="FSW0nJ0Hy-iuMrJ-29rv-87" value="PK" style="shape=partialRectangle;connectable=0;fillColor=none;top=0;left=0;bottom=0;right=0;fontStyle=1;overflow=hidden;html=1;whiteSpace=wrap;" vertex="1" parent="FSW0nJ0Hy-iuMrJ-29rv-86">
          <mxGeometry width="60" height="30" as="geometry">
            <mxRectangle width="60" height="30" as="alternateBounds" />
          </mxGeometry>
        </mxCell>
        <mxCell id="FSW0nJ0Hy-iuMrJ-29rv-88" value="IdConsulta" style="shape=partialRectangle;connectable=0;fillColor=none;top=0;left=0;bottom=0;right=0;align=left;spacingLeft=6;fontStyle=5;overflow=hidden;html=1;whiteSpace=wrap;" vertex="1" parent="FSW0nJ0Hy-iuMrJ-29rv-86">
          <mxGeometry x="60" width="120" height="30" as="geometry">
            <mxRectangle width="120" height="30" as="alternateBounds" />
          </mxGeometry>
        </mxCell>
        <mxCell id="FSW0nJ0Hy-iuMrJ-29rv-89" value="" style="shape=tableRow;horizontal=0;startSize=0;swimlaneHead=0;swimlaneBody=0;fillColor=none;collapsible=0;dropTarget=0;points=[[0,0.5],[1,0.5]];portConstraint=eastwest;top=0;left=0;right=0;bottom=1;html=1;" vertex="1" parent="FSW0nJ0Hy-iuMrJ-29rv-85">
          <mxGeometry y="60" width="180" height="30" as="geometry" />
        </mxCell>
        <mxCell id="FSW0nJ0Hy-iuMrJ-29rv-90" value="FK" style="shape=partialRectangle;connectable=0;fillColor=none;top=0;left=0;bottom=0;right=0;fontStyle=1;overflow=hidden;html=1;whiteSpace=wrap;" vertex="1" parent="FSW0nJ0Hy-iuMrJ-29rv-89">
          <mxGeometry width="60" height="30" as="geometry">
            <mxRectangle width="60" height="30" as="alternateBounds" />
          </mxGeometry>
        </mxCell>
        <mxCell id="FSW0nJ0Hy-iuMrJ-29rv-91" value="IdMedico" style="shape=partialRectangle;connectable=0;fillColor=none;top=0;left=0;bottom=0;right=0;align=left;spacingLeft=6;fontStyle=5;overflow=hidden;html=1;whiteSpace=wrap;" vertex="1" parent="FSW0nJ0Hy-iuMrJ-29rv-89">
          <mxGeometry x="60" width="120" height="30" as="geometry">
            <mxRectangle width="120" height="30" as="alternateBounds" />
          </mxGeometry>
        </mxCell>
        <mxCell id="FSW0nJ0Hy-iuMrJ-29rv-211" style="shape=tableRow;horizontal=0;startSize=0;swimlaneHead=0;swimlaneBody=0;fillColor=none;collapsible=0;dropTarget=0;points=[[0,0.5],[1,0.5]];portConstraint=eastwest;top=0;left=0;right=0;bottom=1;html=1;" vertex="1" parent="FSW0nJ0Hy-iuMrJ-29rv-85">
          <mxGeometry y="90" width="180" height="30" as="geometry" />
        </mxCell>
        <mxCell id="FSW0nJ0Hy-iuMrJ-29rv-212" value="FK" style="shape=partialRectangle;connectable=0;fillColor=none;top=0;left=0;bottom=0;right=0;fontStyle=1;overflow=hidden;html=1;whiteSpace=wrap;" vertex="1" parent="FSW0nJ0Hy-iuMrJ-29rv-211">
          <mxGeometry width="60" height="30" as="geometry">
            <mxRectangle width="60" height="30" as="alternateBounds" />
          </mxGeometry>
        </mxCell>
        <mxCell id="FSW0nJ0Hy-iuMrJ-29rv-213" value="idPaciente" style="shape=partialRectangle;connectable=0;fillColor=none;top=0;left=0;bottom=0;right=0;align=left;spacingLeft=6;fontStyle=5;overflow=hidden;html=1;whiteSpace=wrap;" vertex="1" parent="FSW0nJ0Hy-iuMrJ-29rv-211">
          <mxGeometry x="60" width="120" height="30" as="geometry">
            <mxRectangle width="120" height="30" as="alternateBounds" />
          </mxGeometry>
        </mxCell>
        <mxCell id="FSW0nJ0Hy-iuMrJ-29rv-92" value="" style="shape=tableRow;horizontal=0;startSize=0;swimlaneHead=0;swimlaneBody=0;fillColor=none;collapsible=0;dropTarget=0;points=[[0,0.5],[1,0.5]];portConstraint=eastwest;top=0;left=0;right=0;bottom=0;html=1;" vertex="1" parent="FSW0nJ0Hy-iuMrJ-29rv-85">
          <mxGeometry y="120" width="180" height="30" as="geometry" />
        </mxCell>
        <mxCell id="FSW0nJ0Hy-iuMrJ-29rv-93" value="" style="shape=partialRectangle;connectable=0;fillColor=none;top=0;left=0;bottom=0;right=0;editable=1;overflow=hidden;html=1;whiteSpace=wrap;" vertex="1" parent="FSW0nJ0Hy-iuMrJ-29rv-92">
          <mxGeometry width="60" height="30" as="geometry">
            <mxRectangle width="60" height="30" as="alternateBounds" />
          </mxGeometry>
        </mxCell>
        <mxCell id="FSW0nJ0Hy-iuMrJ-29rv-94" value="Row 3" style="shape=partialRectangle;connectable=0;fillColor=none;top=0;left=0;bottom=0;right=0;align=left;spacingLeft=6;overflow=hidden;html=1;whiteSpace=wrap;" vertex="1" parent="FSW0nJ0Hy-iuMrJ-29rv-92">
          <mxGeometry x="60" width="120" height="30" as="geometry">
            <mxRectangle width="120" height="30" as="alternateBounds" />
          </mxGeometry>
        </mxCell>
        <mxCell id="FSW0nJ0Hy-iuMrJ-29rv-95" value="" style="shape=tableRow;horizontal=0;startSize=0;swimlaneHead=0;swimlaneBody=0;fillColor=none;collapsible=0;dropTarget=0;points=[[0,0.5],[1,0.5]];portConstraint=eastwest;top=0;left=0;right=0;bottom=0;html=1;" vertex="1" parent="FSW0nJ0Hy-iuMrJ-29rv-85">
          <mxGeometry y="150" width="180" height="30" as="geometry" />
        </mxCell>
        <mxCell id="FSW0nJ0Hy-iuMrJ-29rv-96" value="" style="shape=partialRectangle;connectable=0;fillColor=none;top=0;left=0;bottom=0;right=0;editable=1;overflow=hidden;html=1;whiteSpace=wrap;" vertex="1" parent="FSW0nJ0Hy-iuMrJ-29rv-95">
          <mxGeometry width="60" height="30" as="geometry">
            <mxRectangle width="60" height="30" as="alternateBounds" />
          </mxGeometry>
        </mxCell>
        <mxCell id="FSW0nJ0Hy-iuMrJ-29rv-97" value="Prontuario" style="shape=partialRectangle;connectable=0;fillColor=none;top=0;left=0;bottom=0;right=0;align=left;spacingLeft=6;overflow=hidden;html=1;whiteSpace=wrap;" vertex="1" parent="FSW0nJ0Hy-iuMrJ-29rv-95">
          <mxGeometry x="60" width="120" height="30" as="geometry">
            <mxRectangle width="120" height="30" as="alternateBounds" />
          </mxGeometry>
        </mxCell>
        <mxCell id="FSW0nJ0Hy-iuMrJ-29rv-98" value="Comentario" style="shape=table;startSize=30;container=1;collapsible=1;childLayout=tableLayout;fixedRows=1;rowLines=0;fontStyle=1;align=center;resizeLast=1;html=1;whiteSpace=wrap;" vertex="1" parent="1">
          <mxGeometry x="1840" y="-470" width="180" height="180" as="geometry" />
        </mxCell>
        <mxCell id="FSW0nJ0Hy-iuMrJ-29rv-99" value="" style="shape=tableRow;horizontal=0;startSize=0;swimlaneHead=0;swimlaneBody=0;fillColor=none;collapsible=0;dropTarget=0;points=[[0,0.5],[1,0.5]];portConstraint=eastwest;top=0;left=0;right=0;bottom=0;html=1;" vertex="1" parent="FSW0nJ0Hy-iuMrJ-29rv-98">
          <mxGeometry y="30" width="180" height="30" as="geometry" />
        </mxCell>
        <mxCell id="FSW0nJ0Hy-iuMrJ-29rv-100" value="PK" style="shape=partialRectangle;connectable=0;fillColor=none;top=0;left=0;bottom=0;right=0;fontStyle=1;overflow=hidden;html=1;whiteSpace=wrap;" vertex="1" parent="FSW0nJ0Hy-iuMrJ-29rv-99">
          <mxGeometry width="60" height="30" as="geometry">
            <mxRectangle width="60" height="30" as="alternateBounds" />
          </mxGeometry>
        </mxCell>
        <mxCell id="FSW0nJ0Hy-iuMrJ-29rv-101" value="IdComentario" style="shape=partialRectangle;connectable=0;fillColor=none;top=0;left=0;bottom=0;right=0;align=left;spacingLeft=6;fontStyle=5;overflow=hidden;html=1;whiteSpace=wrap;" vertex="1" parent="FSW0nJ0Hy-iuMrJ-29rv-99">
          <mxGeometry x="60" width="120" height="30" as="geometry">
            <mxRectangle width="120" height="30" as="alternateBounds" />
          </mxGeometry>
        </mxCell>
        <mxCell id="FSW0nJ0Hy-iuMrJ-29rv-102" value="" style="shape=tableRow;horizontal=0;startSize=0;swimlaneHead=0;swimlaneBody=0;fillColor=none;collapsible=0;dropTarget=0;points=[[0,0.5],[1,0.5]];portConstraint=eastwest;top=0;left=0;right=0;bottom=1;html=1;" vertex="1" parent="FSW0nJ0Hy-iuMrJ-29rv-98">
          <mxGeometry y="60" width="180" height="30" as="geometry" />
        </mxCell>
        <mxCell id="FSW0nJ0Hy-iuMrJ-29rv-103" value="FK" style="shape=partialRectangle;connectable=0;fillColor=none;top=0;left=0;bottom=0;right=0;fontStyle=1;overflow=hidden;html=1;whiteSpace=wrap;" vertex="1" parent="FSW0nJ0Hy-iuMrJ-29rv-102">
          <mxGeometry width="60" height="30" as="geometry">
            <mxRectangle width="60" height="30" as="alternateBounds" />
          </mxGeometry>
        </mxCell>
        <mxCell id="FSW0nJ0Hy-iuMrJ-29rv-104" value="IdConsulta" style="shape=partialRectangle;connectable=0;fillColor=none;top=0;left=0;bottom=0;right=0;align=left;spacingLeft=6;fontStyle=5;overflow=hidden;html=1;whiteSpace=wrap;" vertex="1" parent="FSW0nJ0Hy-iuMrJ-29rv-102">
          <mxGeometry x="60" width="120" height="30" as="geometry">
            <mxRectangle width="120" height="30" as="alternateBounds" />
          </mxGeometry>
        </mxCell>
        <mxCell id="FSW0nJ0Hy-iuMrJ-29rv-208" style="shape=tableRow;horizontal=0;startSize=0;swimlaneHead=0;swimlaneBody=0;fillColor=none;collapsible=0;dropTarget=0;points=[[0,0.5],[1,0.5]];portConstraint=eastwest;top=0;left=0;right=0;bottom=1;html=1;" vertex="1" parent="FSW0nJ0Hy-iuMrJ-29rv-98">
          <mxGeometry y="90" width="180" height="30" as="geometry" />
        </mxCell>
        <mxCell id="FSW0nJ0Hy-iuMrJ-29rv-209" value="FK" style="shape=partialRectangle;connectable=0;fillColor=none;top=0;left=0;bottom=0;right=0;fontStyle=1;overflow=hidden;html=1;whiteSpace=wrap;" vertex="1" parent="FSW0nJ0Hy-iuMrJ-29rv-208">
          <mxGeometry width="60" height="30" as="geometry">
            <mxRectangle width="60" height="30" as="alternateBounds" />
          </mxGeometry>
        </mxCell>
        <mxCell id="FSW0nJ0Hy-iuMrJ-29rv-210" value="IdPaciente" style="shape=partialRectangle;connectable=0;fillColor=none;top=0;left=0;bottom=0;right=0;align=left;spacingLeft=6;fontStyle=5;overflow=hidden;html=1;whiteSpace=wrap;" vertex="1" parent="FSW0nJ0Hy-iuMrJ-29rv-208">
          <mxGeometry x="60" width="120" height="30" as="geometry">
            <mxRectangle width="120" height="30" as="alternateBounds" />
          </mxGeometry>
        </mxCell>
        <mxCell id="FSW0nJ0Hy-iuMrJ-29rv-105" value="" style="shape=tableRow;horizontal=0;startSize=0;swimlaneHead=0;swimlaneBody=0;fillColor=none;collapsible=0;dropTarget=0;points=[[0,0.5],[1,0.5]];portConstraint=eastwest;top=0;left=0;right=0;bottom=0;html=1;" vertex="1" parent="FSW0nJ0Hy-iuMrJ-29rv-98">
          <mxGeometry y="120" width="180" height="30" as="geometry" />
        </mxCell>
        <mxCell id="FSW0nJ0Hy-iuMrJ-29rv-106" value="" style="shape=partialRectangle;connectable=0;fillColor=none;top=0;left=0;bottom=0;right=0;editable=1;overflow=hidden;html=1;whiteSpace=wrap;" vertex="1" parent="FSW0nJ0Hy-iuMrJ-29rv-105">
          <mxGeometry width="60" height="30" as="geometry">
            <mxRectangle width="60" height="30" as="alternateBounds" />
          </mxGeometry>
        </mxCell>
        <mxCell id="FSW0nJ0Hy-iuMrJ-29rv-107" value="Row 3" style="shape=partialRectangle;connectable=0;fillColor=none;top=0;left=0;bottom=0;right=0;align=left;spacingLeft=6;overflow=hidden;html=1;whiteSpace=wrap;" vertex="1" parent="FSW0nJ0Hy-iuMrJ-29rv-105">
          <mxGeometry x="60" width="120" height="30" as="geometry">
            <mxRectangle width="120" height="30" as="alternateBounds" />
          </mxGeometry>
        </mxCell>
        <mxCell id="FSW0nJ0Hy-iuMrJ-29rv-108" value="" style="shape=tableRow;horizontal=0;startSize=0;swimlaneHead=0;swimlaneBody=0;fillColor=none;collapsible=0;dropTarget=0;points=[[0,0.5],[1,0.5]];portConstraint=eastwest;top=0;left=0;right=0;bottom=0;html=1;" vertex="1" parent="FSW0nJ0Hy-iuMrJ-29rv-98">
          <mxGeometry y="150" width="180" height="30" as="geometry" />
        </mxCell>
        <mxCell id="FSW0nJ0Hy-iuMrJ-29rv-109" value="" style="shape=partialRectangle;connectable=0;fillColor=none;top=0;left=0;bottom=0;right=0;editable=1;overflow=hidden;html=1;whiteSpace=wrap;" vertex="1" parent="FSW0nJ0Hy-iuMrJ-29rv-108">
          <mxGeometry width="60" height="30" as="geometry">
            <mxRectangle width="60" height="30" as="alternateBounds" />
          </mxGeometry>
        </mxCell>
        <mxCell id="FSW0nJ0Hy-iuMrJ-29rv-110" value="Desccricao" style="shape=partialRectangle;connectable=0;fillColor=none;top=0;left=0;bottom=0;right=0;align=left;spacingLeft=6;overflow=hidden;html=1;whiteSpace=wrap;" vertex="1" parent="FSW0nJ0Hy-iuMrJ-29rv-108">
          <mxGeometry x="60" width="120" height="30" as="geometry">
            <mxRectangle width="120" height="30" as="alternateBounds" />
          </mxGeometry>
        </mxCell>
        <mxCell id="FSW0nJ0Hy-iuMrJ-29rv-124" value="Paciente" style="shape=table;startSize=30;container=1;collapsible=1;childLayout=tableLayout;fixedRows=1;rowLines=0;fontStyle=1;align=center;resizeLast=1;html=1;" vertex="1" parent="1">
          <mxGeometry x="2140" y="-620" width="180" height="180" as="geometry" />
        </mxCell>
        <mxCell id="FSW0nJ0Hy-iuMrJ-29rv-125" value="" style="shape=tableRow;horizontal=0;startSize=0;swimlaneHead=0;swimlaneBody=0;fillColor=none;collapsible=0;dropTarget=0;points=[[0,0.5],[1,0.5]];portConstraint=eastwest;top=0;left=0;right=0;bottom=1;" vertex="1" parent="FSW0nJ0Hy-iuMrJ-29rv-124">
          <mxGeometry y="30" width="180" height="30" as="geometry" />
        </mxCell>
        <mxCell id="FSW0nJ0Hy-iuMrJ-29rv-126" value="PK" style="shape=partialRectangle;connectable=0;fillColor=none;top=0;left=0;bottom=0;right=0;fontStyle=1;overflow=hidden;whiteSpace=wrap;html=1;" vertex="1" parent="FSW0nJ0Hy-iuMrJ-29rv-125">
          <mxGeometry width="30" height="30" as="geometry">
            <mxRectangle width="30" height="30" as="alternateBounds" />
          </mxGeometry>
        </mxCell>
        <mxCell id="FSW0nJ0Hy-iuMrJ-29rv-127" value="IdPaciente" style="shape=partialRectangle;connectable=0;fillColor=none;top=0;left=0;bottom=0;right=0;align=left;spacingLeft=6;fontStyle=5;overflow=hidden;whiteSpace=wrap;html=1;" vertex="1" parent="FSW0nJ0Hy-iuMrJ-29rv-125">
          <mxGeometry x="30" width="150" height="30" as="geometry">
            <mxRectangle width="150" height="30" as="alternateBounds" />
          </mxGeometry>
        </mxCell>
        <mxCell id="FSW0nJ0Hy-iuMrJ-29rv-205" style="shape=tableRow;horizontal=0;startSize=0;swimlaneHead=0;swimlaneBody=0;fillColor=none;collapsible=0;dropTarget=0;points=[[0,0.5],[1,0.5]];portConstraint=eastwest;top=0;left=0;right=0;bottom=1;" vertex="1" parent="FSW0nJ0Hy-iuMrJ-29rv-124">
          <mxGeometry y="60" width="180" height="30" as="geometry" />
        </mxCell>
        <mxCell id="FSW0nJ0Hy-iuMrJ-29rv-206" value="FK" style="shape=partialRectangle;connectable=0;fillColor=none;top=0;left=0;bottom=0;right=0;fontStyle=1;overflow=hidden;whiteSpace=wrap;html=1;" vertex="1" parent="FSW0nJ0Hy-iuMrJ-29rv-205">
          <mxGeometry width="30" height="30" as="geometry">
            <mxRectangle width="30" height="30" as="alternateBounds" />
          </mxGeometry>
        </mxCell>
        <mxCell id="FSW0nJ0Hy-iuMrJ-29rv-207" value="IdUsuario" style="shape=partialRectangle;connectable=0;fillColor=none;top=0;left=0;bottom=0;right=0;align=left;spacingLeft=6;fontStyle=5;overflow=hidden;whiteSpace=wrap;html=1;" vertex="1" parent="FSW0nJ0Hy-iuMrJ-29rv-205">
          <mxGeometry x="30" width="150" height="30" as="geometry">
            <mxRectangle width="150" height="30" as="alternateBounds" />
          </mxGeometry>
        </mxCell>
        <mxCell id="FSW0nJ0Hy-iuMrJ-29rv-128" value="" style="shape=tableRow;horizontal=0;startSize=0;swimlaneHead=0;swimlaneBody=0;fillColor=none;collapsible=0;dropTarget=0;points=[[0,0.5],[1,0.5]];portConstraint=eastwest;top=0;left=0;right=0;bottom=0;" vertex="1" parent="FSW0nJ0Hy-iuMrJ-29rv-124">
          <mxGeometry y="90" width="180" height="30" as="geometry" />
        </mxCell>
        <mxCell id="FSW0nJ0Hy-iuMrJ-29rv-129" value="" style="shape=partialRectangle;connectable=0;fillColor=none;top=0;left=0;bottom=0;right=0;editable=1;overflow=hidden;whiteSpace=wrap;html=1;" vertex="1" parent="FSW0nJ0Hy-iuMrJ-29rv-128">
          <mxGeometry width="30" height="30" as="geometry">
            <mxRectangle width="30" height="30" as="alternateBounds" />
          </mxGeometry>
        </mxCell>
        <mxCell id="FSW0nJ0Hy-iuMrJ-29rv-130" value="Nome" style="shape=partialRectangle;connectable=0;fillColor=none;top=0;left=0;bottom=0;right=0;align=left;spacingLeft=6;overflow=hidden;whiteSpace=wrap;html=1;" vertex="1" parent="FSW0nJ0Hy-iuMrJ-29rv-128">
          <mxGeometry x="30" width="150" height="30" as="geometry">
            <mxRectangle width="150" height="30" as="alternateBounds" />
          </mxGeometry>
        </mxCell>
        <mxCell id="FSW0nJ0Hy-iuMrJ-29rv-131" value="" style="shape=tableRow;horizontal=0;startSize=0;swimlaneHead=0;swimlaneBody=0;fillColor=none;collapsible=0;dropTarget=0;points=[[0,0.5],[1,0.5]];portConstraint=eastwest;top=0;left=0;right=0;bottom=0;" vertex="1" parent="FSW0nJ0Hy-iuMrJ-29rv-124">
          <mxGeometry y="120" width="180" height="30" as="geometry" />
        </mxCell>
        <mxCell id="FSW0nJ0Hy-iuMrJ-29rv-132" value="" style="shape=partialRectangle;connectable=0;fillColor=none;top=0;left=0;bottom=0;right=0;editable=1;overflow=hidden;whiteSpace=wrap;html=1;" vertex="1" parent="FSW0nJ0Hy-iuMrJ-29rv-131">
          <mxGeometry width="30" height="30" as="geometry">
            <mxRectangle width="30" height="30" as="alternateBounds" />
          </mxGeometry>
        </mxCell>
        <mxCell id="FSW0nJ0Hy-iuMrJ-29rv-133" value="RG" style="shape=partialRectangle;connectable=0;fillColor=none;top=0;left=0;bottom=0;right=0;align=left;spacingLeft=6;overflow=hidden;whiteSpace=wrap;html=1;" vertex="1" parent="FSW0nJ0Hy-iuMrJ-29rv-131">
          <mxGeometry x="30" width="150" height="30" as="geometry">
            <mxRectangle width="150" height="30" as="alternateBounds" />
          </mxGeometry>
        </mxCell>
        <mxCell id="FSW0nJ0Hy-iuMrJ-29rv-134" value="" style="shape=tableRow;horizontal=0;startSize=0;swimlaneHead=0;swimlaneBody=0;fillColor=none;collapsible=0;dropTarget=0;points=[[0,0.5],[1,0.5]];portConstraint=eastwest;top=0;left=0;right=0;bottom=0;" vertex="1" parent="FSW0nJ0Hy-iuMrJ-29rv-124">
          <mxGeometry y="150" width="180" height="30" as="geometry" />
        </mxCell>
        <mxCell id="FSW0nJ0Hy-iuMrJ-29rv-135" value="" style="shape=partialRectangle;connectable=0;fillColor=none;top=0;left=0;bottom=0;right=0;editable=1;overflow=hidden;whiteSpace=wrap;html=1;" vertex="1" parent="FSW0nJ0Hy-iuMrJ-29rv-134">
          <mxGeometry width="30" height="30" as="geometry">
            <mxRectangle width="30" height="30" as="alternateBounds" />
          </mxGeometry>
        </mxCell>
        <mxCell id="FSW0nJ0Hy-iuMrJ-29rv-136" value="CPF" style="shape=partialRectangle;connectable=0;fillColor=none;top=0;left=0;bottom=0;right=0;align=left;spacingLeft=6;overflow=hidden;whiteSpace=wrap;html=1;" vertex="1" parent="FSW0nJ0Hy-iuMrJ-29rv-134">
          <mxGeometry x="30" width="150" height="30" as="geometry">
            <mxRectangle width="150" height="30" as="alternateBounds" />
          </mxGeometry>
        </mxCell>
        <mxCell id="FSW0nJ0Hy-iuMrJ-29rv-140" style="edgeStyle=orthogonalEdgeStyle;rounded=0;orthogonalLoop=1;jettySize=auto;html=1;entryX=1;entryY=0.5;entryDx=0;entryDy=0;endArrow=none;endFill=0;" edge="1" parent="1" source="FSW0nJ0Hy-iuMrJ-29rv-137" target="FSW0nJ0Hy-iuMrJ-29rv-139">
          <mxGeometry relative="1" as="geometry" />
        </mxCell>
        <mxCell id="FSW0nJ0Hy-iuMrJ-29rv-137" value="TipoUsuario" style="rounded=0;whiteSpace=wrap;html=1;" vertex="1" parent="1">
          <mxGeometry x="740" y="-1270" width="120" height="60" as="geometry" />
        </mxCell>
        <mxCell id="FSW0nJ0Hy-iuMrJ-29rv-155" style="edgeStyle=orthogonalEdgeStyle;rounded=0;orthogonalLoop=1;jettySize=auto;html=1;entryX=0.5;entryY=0;entryDx=0;entryDy=0;endArrow=none;endFill=0;" edge="1" parent="1" source="FSW0nJ0Hy-iuMrJ-29rv-138" target="FSW0nJ0Hy-iuMrJ-29rv-154">
          <mxGeometry relative="1" as="geometry" />
        </mxCell>
        <mxCell id="FSW0nJ0Hy-iuMrJ-29rv-138" value="Usuario" style="rounded=0;whiteSpace=wrap;html=1;" vertex="1" parent="1">
          <mxGeometry x="450" y="-1270" width="120" height="60" as="geometry" />
        </mxCell>
        <mxCell id="FSW0nJ0Hy-iuMrJ-29rv-141" style="edgeStyle=orthogonalEdgeStyle;rounded=0;orthogonalLoop=1;jettySize=auto;html=1;entryX=1;entryY=0.5;entryDx=0;entryDy=0;endArrow=none;endFill=0;" edge="1" parent="1" source="FSW0nJ0Hy-iuMrJ-29rv-139" target="FSW0nJ0Hy-iuMrJ-29rv-138">
          <mxGeometry relative="1" as="geometry" />
        </mxCell>
        <mxCell id="FSW0nJ0Hy-iuMrJ-29rv-139" value="Possui" style="rhombus;whiteSpace=wrap;html=1;" vertex="1" parent="1">
          <mxGeometry x="620" y="-1275" width="70" height="70" as="geometry" />
        </mxCell>
        <mxCell id="FSW0nJ0Hy-iuMrJ-29rv-142" value="1" style="text;html=1;align=center;verticalAlign=middle;resizable=0;points=[];autosize=1;strokeColor=#82b366;fillColor=#d5e8d4;" vertex="1" parent="1">
          <mxGeometry x="710" y="-1270" width="30" height="30" as="geometry" />
        </mxCell>
        <mxCell id="FSW0nJ0Hy-iuMrJ-29rv-143" value="N" style="text;html=1;align=center;verticalAlign=middle;resizable=0;points=[];autosize=1;strokeColor=#9673a6;fillColor=#e1d5e7;" vertex="1" parent="1">
          <mxGeometry x="570" y="-1270" width="30" height="30" as="geometry" />
        </mxCell>
        <mxCell id="FSW0nJ0Hy-iuMrJ-29rv-145" style="edgeStyle=orthogonalEdgeStyle;rounded=0;orthogonalLoop=1;jettySize=auto;html=1;entryX=1;entryY=0.5;entryDx=0;entryDy=0;endArrow=none;endFill=0;" edge="1" parent="1" source="FSW0nJ0Hy-iuMrJ-29rv-144" target="enmrjBKCqqdczSjh6zLh-5">
          <mxGeometry relative="1" as="geometry" />
        </mxCell>
        <mxCell id="FSW0nJ0Hy-iuMrJ-29rv-146" style="edgeStyle=orthogonalEdgeStyle;rounded=0;orthogonalLoop=1;jettySize=auto;html=1;entryX=0;entryY=0.5;entryDx=0;entryDy=0;endArrow=none;endFill=0;" edge="1" parent="1" source="FSW0nJ0Hy-iuMrJ-29rv-144" target="FSW0nJ0Hy-iuMrJ-29rv-138">
          <mxGeometry relative="1" as="geometry" />
        </mxCell>
        <mxCell id="FSW0nJ0Hy-iuMrJ-29rv-144" value="Possui" style="rhombus;whiteSpace=wrap;html=1;" vertex="1" parent="1">
          <mxGeometry x="270" y="-1275" width="70" height="70" as="geometry" />
        </mxCell>
        <mxCell id="FSW0nJ0Hy-iuMrJ-29rv-153" style="edgeStyle=orthogonalEdgeStyle;rounded=0;orthogonalLoop=1;jettySize=auto;html=1;entryX=0;entryY=0.5;entryDx=0;entryDy=0;endArrow=none;endFill=0;" edge="1" parent="1" source="FSW0nJ0Hy-iuMrJ-29rv-151" target="FSW0nJ0Hy-iuMrJ-29rv-3">
          <mxGeometry relative="1" as="geometry" />
        </mxCell>
        <mxCell id="FSW0nJ0Hy-iuMrJ-29rv-151" value="Possui" style="rhombus;whiteSpace=wrap;html=1;" vertex="1" parent="1">
          <mxGeometry x="290" y="-1037.5" width="50" height="55" as="geometry" />
        </mxCell>
        <mxCell id="FSW0nJ0Hy-iuMrJ-29rv-156" style="edgeStyle=orthogonalEdgeStyle;rounded=0;orthogonalLoop=1;jettySize=auto;html=1;entryX=1;entryY=0.5;entryDx=0;entryDy=0;endArrow=none;endFill=0;" edge="1" parent="1" source="FSW0nJ0Hy-iuMrJ-29rv-154" target="enmrjBKCqqdczSjh6zLh-21">
          <mxGeometry relative="1" as="geometry" />
        </mxCell>
        <mxCell id="FSW0nJ0Hy-iuMrJ-29rv-154" value="Possui" style="rhombus;whiteSpace=wrap;html=1;" vertex="1" parent="1">
          <mxGeometry x="515" y="-1160" width="70" height="70" as="geometry" />
        </mxCell>
        <mxCell id="FSW0nJ0Hy-iuMrJ-29rv-157" value="1" style="text;html=1;align=center;verticalAlign=middle;resizable=0;points=[];autosize=1;strokeColor=#82b366;fillColor=#d5e8d4;" vertex="1" parent="1">
          <mxGeometry x="420" y="-1270" width="30" height="30" as="geometry" />
        </mxCell>
        <mxCell id="FSW0nJ0Hy-iuMrJ-29rv-158" value="1" style="text;html=1;align=center;verticalAlign=middle;resizable=0;points=[];autosize=1;strokeColor=#82b366;fillColor=#d5e8d4;" vertex="1" parent="1">
          <mxGeometry x="480" y="-1210" width="30" height="30" as="geometry" />
        </mxCell>
        <mxCell id="FSW0nJ0Hy-iuMrJ-29rv-161" value="N" style="text;html=1;align=center;verticalAlign=middle;resizable=0;points=[];autosize=1;strokeColor=#9673a6;fillColor=#e1d5e7;" vertex="1" parent="1">
          <mxGeometry x="515" y="-885" width="30" height="30" as="geometry" />
        </mxCell>
        <mxCell id="FSW0nJ0Hy-iuMrJ-29rv-162" value="N" style="text;html=1;align=center;verticalAlign=middle;resizable=0;points=[];autosize=1;strokeColor=#9673a6;fillColor=#e1d5e7;" vertex="1" parent="1">
          <mxGeometry x="210" y="-1270" width="30" height="30" as="geometry" />
        </mxCell>
        <mxCell id="FSW0nJ0Hy-iuMrJ-29rv-164" value="TipoUsuario" style="shape=table;startSize=30;container=1;collapsible=1;childLayout=tableLayout;fixedRows=1;rowLines=0;fontStyle=1;align=center;resizeLast=1;html=1;" vertex="1" parent="1">
          <mxGeometry x="1760" y="-830" width="180" height="90" as="geometry" />
        </mxCell>
        <mxCell id="FSW0nJ0Hy-iuMrJ-29rv-165" value="" style="shape=tableRow;horizontal=0;startSize=0;swimlaneHead=0;swimlaneBody=0;fillColor=none;collapsible=0;dropTarget=0;points=[[0,0.5],[1,0.5]];portConstraint=eastwest;top=0;left=0;right=0;bottom=1;" vertex="1" parent="FSW0nJ0Hy-iuMrJ-29rv-164">
          <mxGeometry y="30" width="180" height="30" as="geometry" />
        </mxCell>
        <mxCell id="FSW0nJ0Hy-iuMrJ-29rv-166" value="PK" style="shape=partialRectangle;connectable=0;fillColor=none;top=0;left=0;bottom=0;right=0;fontStyle=1;overflow=hidden;whiteSpace=wrap;html=1;" vertex="1" parent="FSW0nJ0Hy-iuMrJ-29rv-165">
          <mxGeometry width="30" height="30" as="geometry">
            <mxRectangle width="30" height="30" as="alternateBounds" />
          </mxGeometry>
        </mxCell>
        <mxCell id="FSW0nJ0Hy-iuMrJ-29rv-167" value="IdTpoUsuario" style="shape=partialRectangle;connectable=0;fillColor=none;top=0;left=0;bottom=0;right=0;align=left;spacingLeft=6;fontStyle=5;overflow=hidden;whiteSpace=wrap;html=1;" vertex="1" parent="FSW0nJ0Hy-iuMrJ-29rv-165">
          <mxGeometry x="30" width="150" height="30" as="geometry">
            <mxRectangle width="150" height="30" as="alternateBounds" />
          </mxGeometry>
        </mxCell>
        <mxCell id="FSW0nJ0Hy-iuMrJ-29rv-168" value="" style="shape=tableRow;horizontal=0;startSize=0;swimlaneHead=0;swimlaneBody=0;fillColor=none;collapsible=0;dropTarget=0;points=[[0,0.5],[1,0.5]];portConstraint=eastwest;top=0;left=0;right=0;bottom=0;" vertex="1" parent="FSW0nJ0Hy-iuMrJ-29rv-164">
          <mxGeometry y="60" width="180" height="30" as="geometry" />
        </mxCell>
        <mxCell id="FSW0nJ0Hy-iuMrJ-29rv-169" value="" style="shape=partialRectangle;connectable=0;fillColor=none;top=0;left=0;bottom=0;right=0;editable=1;overflow=hidden;whiteSpace=wrap;html=1;" vertex="1" parent="FSW0nJ0Hy-iuMrJ-29rv-168">
          <mxGeometry width="30" height="30" as="geometry">
            <mxRectangle width="30" height="30" as="alternateBounds" />
          </mxGeometry>
        </mxCell>
        <mxCell id="FSW0nJ0Hy-iuMrJ-29rv-170" value="Titulo" style="shape=partialRectangle;connectable=0;fillColor=none;top=0;left=0;bottom=0;right=0;align=left;spacingLeft=6;overflow=hidden;whiteSpace=wrap;html=1;" vertex="1" parent="FSW0nJ0Hy-iuMrJ-29rv-168">
          <mxGeometry x="30" width="150" height="30" as="geometry">
            <mxRectangle width="150" height="30" as="alternateBounds" />
          </mxGeometry>
        </mxCell>
        <mxCell id="FSW0nJ0Hy-iuMrJ-29rv-177" value="Usuario" style="shape=table;startSize=30;container=1;collapsible=1;childLayout=tableLayout;fixedRows=1;rowLines=0;fontStyle=1;align=center;resizeLast=1;html=1;whiteSpace=wrap;" vertex="1" parent="1">
          <mxGeometry x="1520" y="-830" width="180" height="150" as="geometry" />
        </mxCell>
        <mxCell id="FSW0nJ0Hy-iuMrJ-29rv-178" value="" style="shape=tableRow;horizontal=0;startSize=0;swimlaneHead=0;swimlaneBody=0;fillColor=none;collapsible=0;dropTarget=0;points=[[0,0.5],[1,0.5]];portConstraint=eastwest;top=0;left=0;right=0;bottom=0;html=1;" vertex="1" parent="FSW0nJ0Hy-iuMrJ-29rv-177">
          <mxGeometry y="30" width="180" height="30" as="geometry" />
        </mxCell>
        <mxCell id="FSW0nJ0Hy-iuMrJ-29rv-179" value="PK" style="shape=partialRectangle;connectable=0;fillColor=none;top=0;left=0;bottom=0;right=0;fontStyle=1;overflow=hidden;html=1;whiteSpace=wrap;" vertex="1" parent="FSW0nJ0Hy-iuMrJ-29rv-178">
          <mxGeometry width="60" height="30" as="geometry">
            <mxRectangle width="60" height="30" as="alternateBounds" />
          </mxGeometry>
        </mxCell>
        <mxCell id="FSW0nJ0Hy-iuMrJ-29rv-180" value="IdUsuario" style="shape=partialRectangle;connectable=0;fillColor=none;top=0;left=0;bottom=0;right=0;align=left;spacingLeft=6;fontStyle=5;overflow=hidden;html=1;whiteSpace=wrap;" vertex="1" parent="FSW0nJ0Hy-iuMrJ-29rv-178">
          <mxGeometry x="60" width="120" height="30" as="geometry">
            <mxRectangle width="120" height="30" as="alternateBounds" />
          </mxGeometry>
        </mxCell>
        <mxCell id="FSW0nJ0Hy-iuMrJ-29rv-181" value="" style="shape=tableRow;horizontal=0;startSize=0;swimlaneHead=0;swimlaneBody=0;fillColor=none;collapsible=0;dropTarget=0;points=[[0,0.5],[1,0.5]];portConstraint=eastwest;top=0;left=0;right=0;bottom=1;html=1;" vertex="1" parent="FSW0nJ0Hy-iuMrJ-29rv-177">
          <mxGeometry y="60" width="180" height="30" as="geometry" />
        </mxCell>
        <mxCell id="FSW0nJ0Hy-iuMrJ-29rv-182" value="FK" style="shape=partialRectangle;connectable=0;fillColor=none;top=0;left=0;bottom=0;right=0;fontStyle=1;overflow=hidden;html=1;whiteSpace=wrap;" vertex="1" parent="FSW0nJ0Hy-iuMrJ-29rv-181">
          <mxGeometry width="60" height="30" as="geometry">
            <mxRectangle width="60" height="30" as="alternateBounds" />
          </mxGeometry>
        </mxCell>
        <mxCell id="FSW0nJ0Hy-iuMrJ-29rv-183" value="IdTipoUsuario" style="shape=partialRectangle;connectable=0;fillColor=none;top=0;left=0;bottom=0;right=0;align=left;spacingLeft=6;fontStyle=5;overflow=hidden;html=1;whiteSpace=wrap;" vertex="1" parent="FSW0nJ0Hy-iuMrJ-29rv-181">
          <mxGeometry x="60" width="120" height="30" as="geometry">
            <mxRectangle width="120" height="30" as="alternateBounds" />
          </mxGeometry>
        </mxCell>
        <mxCell id="FSW0nJ0Hy-iuMrJ-29rv-184" value="" style="shape=tableRow;horizontal=0;startSize=0;swimlaneHead=0;swimlaneBody=0;fillColor=none;collapsible=0;dropTarget=0;points=[[0,0.5],[1,0.5]];portConstraint=eastwest;top=0;left=0;right=0;bottom=0;html=1;" vertex="1" parent="FSW0nJ0Hy-iuMrJ-29rv-177">
          <mxGeometry y="90" width="180" height="30" as="geometry" />
        </mxCell>
        <mxCell id="FSW0nJ0Hy-iuMrJ-29rv-185" value="" style="shape=partialRectangle;connectable=0;fillColor=none;top=0;left=0;bottom=0;right=0;editable=1;overflow=hidden;html=1;whiteSpace=wrap;" vertex="1" parent="FSW0nJ0Hy-iuMrJ-29rv-184">
          <mxGeometry width="60" height="30" as="geometry">
            <mxRectangle width="60" height="30" as="alternateBounds" />
          </mxGeometry>
        </mxCell>
        <mxCell id="FSW0nJ0Hy-iuMrJ-29rv-186" value="Email" style="shape=partialRectangle;connectable=0;fillColor=none;top=0;left=0;bottom=0;right=0;align=left;spacingLeft=6;overflow=hidden;html=1;whiteSpace=wrap;" vertex="1" parent="FSW0nJ0Hy-iuMrJ-29rv-184">
          <mxGeometry x="60" width="120" height="30" as="geometry">
            <mxRectangle width="120" height="30" as="alternateBounds" />
          </mxGeometry>
        </mxCell>
        <mxCell id="FSW0nJ0Hy-iuMrJ-29rv-187" value="" style="shape=tableRow;horizontal=0;startSize=0;swimlaneHead=0;swimlaneBody=0;fillColor=none;collapsible=0;dropTarget=0;points=[[0,0.5],[1,0.5]];portConstraint=eastwest;top=0;left=0;right=0;bottom=0;html=1;" vertex="1" parent="FSW0nJ0Hy-iuMrJ-29rv-177">
          <mxGeometry y="120" width="180" height="30" as="geometry" />
        </mxCell>
        <mxCell id="FSW0nJ0Hy-iuMrJ-29rv-188" value="" style="shape=partialRectangle;connectable=0;fillColor=none;top=0;left=0;bottom=0;right=0;editable=1;overflow=hidden;html=1;whiteSpace=wrap;" vertex="1" parent="FSW0nJ0Hy-iuMrJ-29rv-187">
          <mxGeometry width="60" height="30" as="geometry">
            <mxRectangle width="60" height="30" as="alternateBounds" />
          </mxGeometry>
        </mxCell>
        <mxCell id="FSW0nJ0Hy-iuMrJ-29rv-189" value="Senha" style="shape=partialRectangle;connectable=0;fillColor=none;top=0;left=0;bottom=0;right=0;align=left;spacingLeft=6;overflow=hidden;html=1;whiteSpace=wrap;" vertex="1" parent="FSW0nJ0Hy-iuMrJ-29rv-187">
          <mxGeometry x="60" width="120" height="30" as="geometry">
            <mxRectangle width="120" height="30" as="alternateBounds" />
          </mxGeometry>
        </mxCell>
        <mxCell id="FSW0nJ0Hy-iuMrJ-29rv-214" value="" style="edgeStyle=entityRelationEdgeStyle;fontSize=12;html=1;endArrow=ERoneToMany;rounded=0;exitX=1;exitY=0.5;exitDx=0;exitDy=0;entryX=0;entryY=0.5;entryDx=0;entryDy=0;" edge="1" parent="1" source="FSW0nJ0Hy-iuMrJ-29rv-60" target="FSW0nJ0Hy-iuMrJ-29rv-76">
          <mxGeometry width="100" height="100" relative="1" as="geometry">
            <mxPoint x="1200" y="-810" as="sourcePoint" />
            <mxPoint x="1300" y="-910" as="targetPoint" />
          </mxGeometry>
        </mxCell>
        <mxCell id="FSW0nJ0Hy-iuMrJ-29rv-215" value="" style="edgeStyle=entityRelationEdgeStyle;fontSize=12;html=1;endArrow=ERoneToMany;rounded=0;exitX=0;exitY=0.5;exitDx=0;exitDy=0;entryX=1;entryY=0.5;entryDx=0;entryDy=0;" edge="1" parent="1" source="FSW0nJ0Hy-iuMrJ-29rv-178" target="FSW0nJ0Hy-iuMrJ-29rv-199">
          <mxGeometry width="100" height="100" relative="1" as="geometry">
            <mxPoint x="1460" y="-785" as="sourcePoint" />
            <mxPoint x="1520" y="-755" as="targetPoint" />
          </mxGeometry>
        </mxCell>
        <mxCell id="FSW0nJ0Hy-iuMrJ-29rv-216" value="" style="edgeStyle=entityRelationEdgeStyle;fontSize=12;html=1;endArrow=ERoneToMany;rounded=0;exitX=0;exitY=0.5;exitDx=0;exitDy=0;entryX=1;entryY=0.5;entryDx=0;entryDy=0;" edge="1" parent="1" source="FSW0nJ0Hy-iuMrJ-29rv-165" target="FSW0nJ0Hy-iuMrJ-29rv-181">
          <mxGeometry width="100" height="100" relative="1" as="geometry">
            <mxPoint x="1770" y="-720" as="sourcePoint" />
            <mxPoint x="1710" y="-630" as="targetPoint" />
          </mxGeometry>
        </mxCell>
        <mxCell id="FSW0nJ0Hy-iuMrJ-29rv-218" value="" style="edgeStyle=entityRelationEdgeStyle;fontSize=12;html=1;endArrow=ERoneToMany;rounded=0;exitX=1;exitY=0.5;exitDx=0;exitDy=0;entryX=0;entryY=0.5;entryDx=0;entryDy=0;" edge="1" parent="1" source="FSW0nJ0Hy-iuMrJ-29rv-47" target="FSW0nJ0Hy-iuMrJ-29rv-196">
          <mxGeometry width="100" height="100" relative="1" as="geometry">
            <mxPoint x="1270" y="-990" as="sourcePoint" />
            <mxPoint x="950" y="-960" as="targetPoint" />
          </mxGeometry>
        </mxCell>
        <mxCell id="FSW0nJ0Hy-iuMrJ-29rv-219" value="" style="edgeStyle=entityRelationEdgeStyle;fontSize=12;html=1;endArrow=ERoneToMany;rounded=0;exitX=1;exitY=0.5;exitDx=0;exitDy=0;entryX=0;entryY=0.5;entryDx=0;entryDy=0;" edge="1" parent="1" source="FSW0nJ0Hy-iuMrJ-29rv-73" target="FSW0nJ0Hy-iuMrJ-29rv-89">
          <mxGeometry width="100" height="100" relative="1" as="geometry">
            <mxPoint x="1520" y="-570" as="sourcePoint" />
            <mxPoint x="1460" y="-480" as="targetPoint" />
          </mxGeometry>
        </mxCell>
        <mxCell id="FSW0nJ0Hy-iuMrJ-29rv-220" value="" style="edgeStyle=entityRelationEdgeStyle;fontSize=12;html=1;endArrow=ERoneToMany;rounded=0;exitX=0;exitY=0.5;exitDx=0;exitDy=0;entryX=1;entryY=0.5;entryDx=0;entryDy=0;" edge="1" parent="1" source="FSW0nJ0Hy-iuMrJ-29rv-125" target="FSW0nJ0Hy-iuMrJ-29rv-211">
          <mxGeometry width="100" height="100" relative="1" as="geometry">
            <mxPoint x="1820" y="-650" as="sourcePoint" />
            <mxPoint x="1760" y="-560" as="targetPoint" />
          </mxGeometry>
        </mxCell>
        <mxCell id="FSW0nJ0Hy-iuMrJ-29rv-222" value="" style="edgeStyle=entityRelationEdgeStyle;fontSize=12;html=1;endArrow=ERoneToMany;rounded=0;exitX=1;exitY=0.5;exitDx=0;exitDy=0;entryX=0;entryY=0.5;entryDx=0;entryDy=0;" edge="1" parent="1" source="FSW0nJ0Hy-iuMrJ-29rv-86" target="FSW0nJ0Hy-iuMrJ-29rv-102">
          <mxGeometry width="100" height="100" relative="1" as="geometry">
            <mxPoint x="1890" y="-240" as="sourcePoint" />
            <mxPoint x="1830" y="-150" as="targetPoint" />
          </mxGeometry>
        </mxCell>
        <mxCell id="FSW0nJ0Hy-iuMrJ-29rv-223" value="" style="edgeStyle=entityRelationEdgeStyle;fontSize=12;html=1;endArrow=ERoneToMany;rounded=0;exitX=0;exitY=0.5;exitDx=0;exitDy=0;entryX=1;entryY=0.5;entryDx=0;entryDy=0;" edge="1" parent="1" source="FSW0nJ0Hy-iuMrJ-29rv-125" target="FSW0nJ0Hy-iuMrJ-29rv-208">
          <mxGeometry width="100" height="100" relative="1" as="geometry">
            <mxPoint x="2270" y="-310" as="sourcePoint" />
            <mxPoint x="2210" y="-220" as="targetPoint" />
          </mxGeometry>
        </mxCell>
      </root>
    </mxGraphModel>
  </diagram>
</mxfile>
